<svg xmlns="http://www.w3.org/2000/svg" version="1.1" viewBox="-5.0 -10.0 110.0 135.0">
 <path d="m86.199 51.371c-0.12109-0.070313-0.25-0.12891-0.37891-0.19141 0.41016-5.3711-0.03125-10.648-1.3203-15.691-1.1484-4.5508-4.2188-16.621-14.738-23.219-2.6211-1.6406-4.8516-2.3984-8.5781-3.6914-6.5312-2.2383-11.691-4-17.25-2.3711-2.5898 0.75-6.3594 2.6016-9.8203 7.1602-3.9297 0.73047-9.4688 2.6094-14.371 7.3398-5.1094 4.9297-6.8516 10.512-7.4219 12.352-0.53906 1.75-1.8203 5.8516-1.2305 11.148 0.30078 2.7109 1.0586 5.3203 2.1992 7.8203-2.7188 2.4883-2.6797 7.9414 0.26953 13.07 2.3008 3.9688 5.7812 6.6289 8.9297 6.9492 4.8281 13.621 15.609 22.379 27.68 22.379 12.07 0 22.852-8.7617 27.68-22.379 3.1484-0.32031 6.6406-2.9883 8.9297-6.9492 3.25-5.6289 2.9805-11.66-0.58984-13.719zm-11.77 10.391c-0.35938-5.8906-5.2383-10.57-11.219-10.57-5.9805 0-10.59 4.4102-11.191 10.09l-3.6914-0.070312c-0.62109-5.6211-5.4102-10.02-11.191-10.02s-10.309 4.1211-11.129 9.5508l-2.9414-0.058594s0.058594-0.050782 0.078125-0.078125c0.21875-0.19141 0.44141-0.39062 0.64844-0.58984 0.30078-0.28906 0.57031-0.57812 0.85156-0.87891 0.17969-0.19922 0.37109-0.37891 0.53906-0.57812 0.28906-0.33984 0.55859-0.69141 0.82812-1.0391 0.12891-0.17188 0.28125-0.33984 0.41016-0.51953 0.37891-0.53906 0.73828-1.0781 1.0703-1.6484 2.1914-3.75 2.5508-7.0391 2.8711-9.9297 0.26953-2.4688 0.5-4.6094 1.8281-6.5898 2.0195-3.0117 6.1211-4.8203 12.16-5.4102 0.070313 0 0.14063-0.019531 0.19922-0.039063 9.2109-2.5586 15.609-2.2617 19.02 0.92188 0.10156 0.089843 0.19141 0.17969 0.30859 0.32031 0.12109 0.12109 0.23047 0.23828 0.32031 0.33984 0.25 0.32031 0.48828 0.64062 0.69141 0.96094 0.14844 0.25 0.30078 0.5 0.42969 0.76172 0.12109 0.25 0.23828 0.51172 0.37109 0.80078 0.42188 1.0117 0.76172 2.1094 1.1484 3.3789 0.89062 2.9219 2 6.5586 4.8086 10.941 0 0 0 0.019531 0.019531 0.03125 0.44141 0.73047 0.91016 1.4492 1.3906 2.1602 0.17188 0.25 0.35156 0.48047 0.53125 0.73047 0.32812 0.46875 0.66016 0.94141 1.0195 1.3984 0.21875 0.28906 0.46094 0.57031 0.69141 0.85156 0.32031 0.39844 0.64062 0.80859 0.98047 1.1992 0.26172 0.30078 0.53125 0.58984 0.78906 0.87891 0.28125 0.30859 0.53906 0.62109 0.82813 0.92188-0.011719 0.16016-0.019532 0.32031-0.039063 0.5-0.03125 0.42969-0.070313 0.85156-0.12891 1.3594l-3.3281-0.078125zm-2.3398 1.1016c-0.21875 4.75-4.1211 8.4688-8.8711 8.4688s-8.8594-3.9688-8.8789-8.8789c0-4.8984 3.9883-8.8789 8.8789-8.8789s8.8789 3.9883 8.8789 8.8789c0 0.12109 0 0.26172-0.011718 0.42188zm-43.809-0.85938c0.23047-4.7383 4.1289-8.4492 8.8711-8.4492 4.7383 0 8.8516 3.9609 8.8789 8.8203 0 0 0.011719 0.039062 0.011719 0.058594h-0.019531c0 4.8984-3.9883 8.8906-8.8789 8.8906s-8.8789-3.9883-8.8789-8.8789c0-0.14062 0-0.28125 0.011719-0.44141zm-12.648 1.9102c-2.5-4.3281-2.6211-9.1406-0.26953-10.488 0.19141-0.10938 0.39062-0.17969 0.60938-0.23828 0.058594-0.019531 0.12109-0.03125 0.17188-0.039062 0.17969-0.039063 0.37109-0.058594 0.57031-0.070313h0.12891c0.21875 0 0.44922 0.019531 0.69141 0.070313 0.050782 0 0.10156 0.019531 0.14062 0.03125 0.19141 0.039062 0.39062 0.089843 0.58984 0.16016 0.078125 0.03125 0.16016 0.058594 0.23828 0.089844 0.17969 0.070312 0.37109 0.14844 0.55078 0.23828 0.078124 0.039062 0.14844 0.070312 0.23047 0.10938 0.26172 0.14062 0.51953 0.28125 0.78125 0.46094-0.058594 0.96094-0.10156 1.9102-0.10156 2.8906 0 0.62891 0.011718 1.25 0.039062 1.8789 0.019532 0.58984 0.058594 1.1719 0.10938 1.75 0.058594 0.83984 0.16016 1.6719 0.26172 2.4883 0.03125 0.26172 0.078125 0.51172 0.12109 0.76953 0.089844 0.57812 0.17969 1.1484 0.28906 1.7188 0.058594 0.28906 0.12109 0.57812 0.17969 0.87109 0.12109 0.55078 0.23828 1.0898 0.37891 1.6289 0.070312 0.28125 0.14062 0.55078 0.21094 0.82812 0.039062 0.14844 0.070312 0.30078 0.12109 0.44922-2.1094-0.69922-4.4297-2.7812-6.0508-5.5781zm34.559 28.148c-11.262 0-21.352-8.4414-25.711-21.512-0.26172-0.78125-0.48828-1.5586-0.69922-2.3594-0.070312-0.26953-0.12891-0.53906-0.19141-0.80859-0.12891-0.53125-0.26172-1.0586-0.37109-1.6016-0.070312-0.32812-0.12109-0.64844-0.17188-0.98047-0.089844-0.48828-0.17969-0.96875-0.25-1.4609-0.011719-0.10156-0.019531-0.19922-0.039063-0.30078l3.1797 0.058594c0.35156 5.8984 5.2383 10.59 11.219 10.59s10.621-4.4414 11.199-10.121l3.6797 0.070313c0.60938 5.6289 5.3984 10.039 11.191 10.039 5.7891 0 10.328-4.1289 11.129-9.5703l3.1016 0.078125c-0.070312 0.42188-0.14062 0.83984-0.21875 1.2383l-0.10938 0.51953c-0.058594 0.33984-0.14062 0.67969-0.23828 1.0508-0.26953 1.1797-0.60156 2.3789-0.98828 3.5391-4.3594 13.059-14.449 21.512-25.711 21.512zm34.559-28.148c-1.6211 2.8008-3.9414 4.8906-6.0508 5.5781v-0.03125c0.17969-0.62891 0.33984-1.2617 0.48047-1.8789 0.10156-0.37891 0.19141-0.78125 0.26953-1.1914l0.10156-0.48047c0.078125-0.42969 0.16016-0.87109 0.23047-1.3516l0.03125-0.19922c0.078125-0.39844 0.12891-0.82031 0.17188-1.1914 0.050781-0.30859 0.089844-0.60938 0.10938-0.92188 0.011719-0.078125 0.03125-0.16016 0.03125-0.23828 0.050781-0.44922 0.089844-0.89844 0.12891-1.4297 0.050782-0.53906 0.070313-1.0781 0.10156-1.6289 0.03125-0.60938 0.039062-1.2305 0.039062-1.8516v-0.28125c0-0.21094 0-0.42969-0.011719-0.57031 0-0.37109-0.011718-0.75-0.039062-1.0391 0-0.32812-0.019531-0.66016-0.050781-0.98828 0.62109-0.39844 1.2305-0.71094 1.8203-0.91016 0.03125 0 0.058594-0.019532 0.089844-0.03125 0.69141-0.21875 1.3203-0.26953 1.8984-0.17188 0.058594 0.011719 0.12891 0.019531 0.19141 0.03125 0.26953 0.058593 0.5 0.14844 0.71094 0.28125 2.3516 1.3516 2.2305 6.1602-0.26953 10.488z"/>
<text x="0.0" y="117.5" font-size="5.0" font-weight="bold" font-family="Arbeit Regular, Helvetica, Arial-Unicode, Arial, Sans-serif" fill="#000000">Created by Reshifa Aurel Salsabila</text><text x="0.0" y="122.5" font-size="5.0" font-weight="bold" font-family="Arbeit Regular, Helvetica, Arial-Unicode, Arial, Sans-serif" fill="#000000">from Noun Project</text></svg>